<svg width="142" height="137" viewBox="0 0 142 137" fill="none" xmlns="http://www.w3.org/2000/svg">
<path d="M42.875 122.745V91.7812H71L71.0012 116.195L42.875 122.745Z" fill="#5B3719"/>
<path d="M3.03125 2.71875H138.969V73.0312H3.03125V2.71875Z" fill="#62AE88"/>
<path d="M113.187 12.0938C109.942 12.0935 106.77 13.0556 104.072 14.8583C101.374 16.6611 99.2708 19.2234 98.029 22.2214C96.7871 25.2194 96.4622 28.5184 97.0953 31.701C97.7285 34.8837 99.2912 37.8071 101.586 40.1016L113.187 28.5V12.0938Z" fill="#EE9D0D"/>
<path d="M3.03125 73.0312H138.969V82.4062H3.03125V73.0312Z" fill="#A3612D"/>
<path d="M3.03125 68.3438H138.969V73.0312H3.03125V68.3438Z" fill="#5AA07D"/>
<path d="M49.9062 28.5V47.25H59.2812V42.5625H59.8672C60.955 42.5625 61.9982 42.1304 62.7674 41.3612C63.5366 40.592 63.9688 39.5487 63.9688 38.4609V28.5H49.9062Z" fill="#FDC9A6"/>
<path d="M47.4886 23.959C48.2151 22.5065 49.3316 21.2849 50.7132 20.4311C52.0948 19.5773 53.6868 19.1251 55.3108 19.125H63.9687C65.2119 19.125 66.4041 19.6189 67.2832 20.4979C68.1623 21.377 68.6562 22.5693 68.6562 23.8125C68.6562 25.0557 68.1623 26.248 67.2832 27.1271C66.4041 28.0061 65.2119 28.5 63.9687 28.5H54.5937L49.9062 35.5312L48.0344 32.7234C47.1788 31.4404 46.6777 29.9539 46.5819 28.4147C46.486 26.8755 46.7988 25.3383 47.4886 23.959Z" fill="#7A4922"/>
<path d="M19.4375 110.531L8.71484 115.127C7.02819 115.85 5.59063 117.051 4.58033 118.583C3.57003 120.115 3.03142 121.909 3.03125 123.744V133.969H45.2188V123.744C45.2186 121.909 44.6801 120.115 43.6698 118.583C42.6595 117.051 41.2219 115.85 39.5352 115.127L28.8125 110.531H19.4375Z" fill="#91A666"/>
<path d="M33.5 101.156C33.5 95.9786 29.3027 91.7812 24.125 91.7812C18.9473 91.7812 14.75 95.9786 14.75 101.156V103.5C14.75 108.678 18.9473 112.875 24.125 112.875C29.3027 112.875 33.5 108.678 33.5 103.5V101.156Z" fill="#7A4922"/>
<path d="M103.812 110.531L93.0898 115.127C91.4032 115.85 89.9656 117.051 88.9553 118.583C87.945 120.115 87.4064 121.909 87.4062 123.744V133.969H129.594V123.744C129.594 121.909 129.055 120.115 128.045 118.583C127.035 117.051 125.598 115.85 123.912 115.127L113.188 110.531H103.812Z" fill="#EA2B2D"/>
<path d="M117.875 101.156C117.875 95.9786 113.678 91.7812 108.5 91.7812C103.322 91.7812 99.125 95.9786 99.125 101.156V103.5C99.125 108.678 103.322 112.875 108.5 112.875C113.678 112.875 117.875 108.678 117.875 103.5V101.156Z" fill="#7A4922"/>
<path d="M113.187 12.0938V28.5L101.586 40.1016C103.494 42.0092 105.843 43.4169 108.424 44.2C111.006 44.983 113.741 45.1173 116.387 44.5909C119.033 44.0645 121.509 42.8937 123.594 41.1821C125.68 39.4706 127.311 37.2711 128.344 34.7786C129.376 32.286 129.778 29.5773 129.514 26.8923C129.249 24.2074 128.327 21.6291 126.828 19.3857C125.329 17.1424 123.3 15.3034 120.921 14.0314C118.542 12.7595 115.885 12.0939 113.187 12.0938Z" fill="#A86E09"/>
<path d="M75.6875 43.841L96.7812 28.5L103.812 35.5313L83.9167 52.585L75.6875 43.841Z" fill="#FDC9A6"/>
<path d="M75.6875 43.841L71 47.25H41.1172C38.4754 47.25 35.9418 48.2994 34.0737 50.1675C32.2057 52.0355 31.1562 54.5691 31.1562 57.2109V62.6185H42.875V91.7812H71V63.6562L83.9167 52.585L75.6875 43.841Z" fill="#92D1F7"/>
<path d="M52.25 56.625H75.6875V75.375H52.25V56.625Z" fill="#0A71CD"/>
<path d="M31.1562 62.6185V74.789C31.1562 76.8092 31.9588 78.7467 33.3873 80.1752C34.8158 81.6037 36.7532 82.4062 38.7734 82.4062H56.9375V70.6875H42.875V62.6185H31.1562Z" fill="#FDC9A6"/>
<path d="M61.625 110.531L50.9023 115.127C49.2157 115.85 47.7781 117.051 46.7678 118.583C45.7575 120.115 45.2189 121.909 45.2188 123.744V133.969H87.4062V123.744C87.4063 121.909 86.8679 120.115 85.8579 118.583C84.8478 117.051 83.4105 115.85 81.7241 115.127L71 110.531H61.625Z" fill="#CBCBCB"/>
<path d="M75.6875 101.156C75.6875 95.9786 71.4902 91.7812 66.3125 91.7812C61.1348 91.7812 56.9375 95.9786 56.9375 101.156V103.5C56.9375 108.678 61.1348 112.875 66.3125 112.875C71.4902 112.875 75.6875 108.678 75.6875 103.5V101.156Z" fill="#EE9D0D"/>
<path d="M42.875 82.4062H56.9381V84.75H42.875V82.4062Z" fill="#5EBEF7"/>
<path d="M56.9375 75.375H71.0006V77.7188H56.9375V75.375Z" fill="#5EBEF7"/>
<path d="M138.969 0.375H3.03125C2.40965 0.375 1.81351 0.621931 1.37397 1.06147C0.934433 1.50101 0.687503 2.09715 0.687503 2.71875V82.4062C0.687503 83.0279 0.934433 83.624 1.37397 84.0635C1.81351 84.5031 2.40965 84.75 3.03125 84.75H40.5313V113.007C40.5069 112.996 40.4844 112.983 40.4601 112.973L33.793 110.115C35.1314 108.169 35.8466 105.862 35.8438 103.5V101.156C35.8438 98.0482 34.6091 95.0675 32.4114 92.8698C30.2137 90.6721 27.233 89.4375 24.125 89.4375C21.017 89.4375 18.0363 90.6721 15.8386 92.8698C13.6409 95.0675 12.4063 98.0482 12.4063 101.156V103.5C12.4039 105.862 13.1196 108.169 14.4585 110.115L7.78994 112.973C5.68097 113.875 3.88347 115.377 2.62077 117.292C1.35806 119.207 0.685802 121.45 0.687503 123.744V133.969C0.687503 134.59 0.934433 135.186 1.37397 135.626C1.81351 136.066 2.40965 136.312 3.03125 136.312H129.594C130.215 136.312 130.811 136.066 131.251 135.626C131.691 135.186 131.938 134.59 131.938 133.969V123.744C131.939 121.45 131.267 119.207 130.004 117.292C128.742 115.377 126.944 113.875 124.835 112.973L118.168 110.115C119.506 108.169 120.222 105.862 120.219 103.5V101.156C120.219 98.0482 118.984 95.0675 116.786 92.8698C114.589 90.6721 111.608 89.4375 108.5 89.4375C105.392 89.4375 102.411 90.6721 100.214 92.8698C98.0159 95.0675 96.7812 98.0482 96.7812 101.156V103.5C96.7784 105.862 97.4936 108.169 98.832 110.115L92.1635 112.973C90.2769 113.782 88.6363 115.072 87.4062 116.716C86.1758 115.072 84.5346 113.782 82.6476 112.973L75.9805 110.115C77.3189 108.169 78.0341 105.862 78.0312 103.5V101.156C78.0311 99.3379 77.6074 97.5446 76.7938 95.9184C75.9802 94.2923 74.799 92.878 73.3438 91.7877V84.75H138.969C139.59 84.75 140.186 84.5031 140.626 84.0635C141.066 83.624 141.312 83.0279 141.312 82.4062V2.71875C141.312 2.09715 141.066 1.50101 140.626 1.06147C140.186 0.621931 139.59 0.375 138.969 0.375ZM101.469 101.156C101.469 99.2914 102.21 97.503 103.528 96.1844C104.847 94.8658 106.635 94.125 108.5 94.125C110.365 94.125 112.153 94.8658 113.472 96.1844C114.79 97.503 115.531 99.2914 115.531 101.156V103.5C115.531 105.365 114.79 107.153 113.472 108.472C112.153 109.79 110.365 110.531 108.5 110.531C106.635 110.531 104.847 109.79 103.528 108.472C102.21 107.153 101.469 105.365 101.469 103.5V101.156ZM89.75 123.744C89.749 122.368 90.1524 121.022 90.91 119.873C91.6676 118.724 92.7461 117.822 94.0115 117.281L102.582 113.607C104.376 114.662 106.419 115.218 108.5 115.218C110.581 115.218 112.624 114.662 114.418 113.607L122.988 117.281C124.254 117.822 125.333 118.723 126.09 119.872C126.848 121.021 127.251 122.368 127.25 123.744V131.625H122.562V124.594C122.562 123.972 122.316 123.376 121.876 122.936C121.436 122.497 120.84 122.25 120.219 122.25C119.597 122.25 119.001 122.497 118.561 122.936C118.122 123.376 117.875 123.972 117.875 124.594V131.625H99.125V124.594C99.125 123.972 98.8781 123.376 98.4385 122.936C97.999 122.497 97.4029 122.25 96.7812 122.25C96.1596 122.25 95.5635 122.497 95.124 122.936C94.6844 123.376 94.4375 123.972 94.4375 124.594V131.625H89.75V123.744ZM5.375 80.0625V75.375H28.831C28.9275 77.0387 29.4427 78.651 30.3286 80.0625H5.375ZM38.7734 80.0625C37.3753 80.0609 36.035 79.5048 35.0464 78.5161C34.0577 77.5275 33.5016 76.1872 33.5 74.7891V64.9623H40.5313V70.6875C40.5313 71.3091 40.7782 71.9052 41.2177 72.3448C41.6573 72.7843 42.2534 73.0312 42.875 73.0312H54.5938V80.0625H38.7734ZM55.3118 21.4688H63.9688C64.5904 21.4688 65.1865 21.7157 65.626 22.1552C66.0656 22.5948 66.3125 23.1909 66.3125 23.8125C66.3125 24.4341 66.0656 25.0302 65.626 25.4698C65.1865 25.9093 64.5904 26.1562 63.9688 26.1562H54.5938C54.2079 26.1563 53.8281 26.2515 53.4879 26.4336C53.1478 26.6156 52.8578 26.8788 52.6438 27.1998L49.9063 31.3046C49.3153 30.3715 48.9752 29.3017 48.9187 28.1986C48.8623 27.0956 49.0914 25.9967 49.584 25.0081C50.1126 23.9419 50.9295 23.0451 51.9419 22.4195C52.9543 21.7939 54.1217 21.4646 55.3118 21.4688ZM61.625 30.8438V38.4609C61.6245 38.927 61.4392 39.3738 61.1096 39.7034C60.7801 40.0329 60.3332 40.2183 59.8672 40.2188H59.2813C58.6597 40.2188 58.0635 40.4657 57.624 40.9052C57.1844 41.3448 56.9375 41.9409 56.9375 42.5625V44.9062H52.25V36.2408L55.848 30.8438H61.625ZM71 49.5938C71.4948 49.5934 71.9768 49.4365 72.377 49.1455L75.3945 46.9512L80.5256 52.4033L77.4269 55.0594C77.2079 54.8147 76.9398 54.619 76.6401 54.4849C76.3404 54.3508 76.0158 54.2814 75.6875 54.2812H52.25C51.6284 54.2812 51.0323 54.5282 50.5927 54.9677C50.1532 55.4073 49.9063 56.0034 49.9063 56.625V68.3438H45.2188V62.6186C45.2188 61.997 44.9718 61.4008 44.5323 60.9613C44.0928 60.5217 43.4966 60.2748 42.875 60.2748H33.5V57.2109C33.5023 55.1914 34.3055 53.2553 35.7335 51.8273C37.1615 50.3992 39.0977 49.596 41.1172 49.5938H71ZM110.844 27.5294L104.984 33.3888L102.44 30.8438L107.814 25.4698C108.031 25.2522 108.204 24.9938 108.322 24.7094C108.439 24.4251 108.5 24.1203 108.5 23.8125C108.5 23.5047 108.439 23.1999 108.322 22.9156C108.204 22.6312 108.031 22.3728 107.814 22.1552C107.596 21.9375 107.338 21.7649 107.053 21.6471C106.769 21.5293 106.464 21.4687 106.156 21.4687C105.848 21.4687 105.544 21.5293 105.259 21.6471C104.975 21.7649 104.717 21.9375 104.499 22.1552L99.1654 27.4872C99.3964 24.3483 100.672 21.3773 102.789 19.0481C104.905 16.7188 107.741 15.1657 110.844 14.6364V27.5294ZM114.845 30.1573C115.062 29.9397 115.235 29.6813 115.353 29.3969C115.471 29.1126 115.531 28.8078 115.531 28.5V14.6364C119.005 15.227 122.131 17.1003 124.289 19.8855C126.448 22.6706 127.482 26.1647 127.188 29.6761C126.893 33.1875 125.291 36.4603 122.698 38.8467C120.105 41.2331 116.711 42.5592 113.188 42.5625C110.266 42.5705 107.417 41.6608 105.04 39.9618L114.845 30.1573ZM100.365 35.3988L84.0901 49.3494L79.2175 44.1718L96.5401 31.5741L100.365 35.3988ZM68.6563 89.6733C67.8986 89.5189 45.2188 89.4375 45.2188 89.4375V84.75H56.9375C57.5591 84.75 58.1553 84.5031 58.5948 84.0635C59.0343 83.624 59.2813 83.0279 59.2813 82.4062V77.7188H68.6563V89.6733ZM73.3438 101.156V103.5C73.3438 105.365 72.603 107.153 71.2843 108.472C69.9657 109.79 68.1773 110.531 66.3125 110.531C64.4477 110.531 62.6593 109.79 61.3407 108.472C60.022 107.153 59.2813 105.365 59.2813 103.5V101.156C59.2813 99.2914 60.022 97.503 61.3407 96.1844C62.6593 94.8658 64.4477 94.125 66.3125 94.125C68.1773 94.125 69.9657 94.8658 71.2843 96.1844C72.603 97.503 73.3438 99.2914 73.3438 101.156ZM61.625 73.0312H59.2813V70.6875C59.2813 70.0659 59.0343 69.4698 58.5948 69.0302C58.1553 68.5907 57.5591 68.3438 56.9375 68.3438H54.5938V58.9688H61.625V73.0312ZM17.0938 101.156C17.0938 99.2914 17.8345 97.503 19.1532 96.1844C20.4718 94.8658 22.2602 94.125 24.125 94.125C25.9898 94.125 27.7782 94.8658 29.0968 96.1844C30.4155 97.503 31.1563 99.2914 31.1563 101.156V103.5C31.1563 105.365 30.4155 107.153 29.0968 108.472C27.7782 109.79 25.9898 110.531 24.125 110.531C22.2602 110.531 20.4718 109.79 19.1532 108.472C17.8345 107.153 17.0938 105.365 17.0938 103.5V101.156ZM42.875 131.625H38.1875V124.594C38.1875 123.972 37.9406 123.376 37.501 122.936C37.0615 122.497 36.4654 122.25 35.8438 122.25C35.2222 122.25 34.626 122.497 34.1865 122.936C33.7469 123.376 33.5 123.972 33.5 124.594V131.625H14.75V124.594C14.75 123.972 14.5031 123.376 14.0635 122.936C13.624 122.497 13.0279 122.25 12.4063 122.25C11.7847 122.25 11.1885 122.497 10.749 122.936C10.3094 123.376 10.0625 123.972 10.0625 124.594V131.625H5.375V123.744C5.37399 122.368 5.77735 121.022 6.53498 119.873C7.29261 118.724 8.37112 117.822 9.63653 117.281L18.207 113.607C20.001 114.662 22.0441 115.218 24.125 115.218C26.2059 115.218 28.249 114.662 30.043 113.607L38.6135 117.28C39.879 117.822 40.9576 118.723 41.7153 119.872C42.4729 121.021 42.8762 122.368 42.875 123.744V131.625ZM45.2188 116.716L45.207 116.699C45.2147 116.622 45.2188 116.544 45.2188 116.464V94.125H56.944C55.4163 96.1505 54.5911 98.6192 54.5938 101.156V103.5C54.5909 105.862 55.3061 108.169 56.6445 110.115L49.976 112.973C48.0895 113.782 46.4488 115.072 45.2188 116.716ZM80.801 117.282C82.0663 117.823 83.1448 118.724 83.9024 119.873C84.6601 121.022 85.0635 122.368 85.0625 123.744V131.625H80.375V124.594C80.375 123.972 80.1281 123.376 79.6885 122.936C79.249 122.497 78.6529 122.25 78.0312 122.25C77.4096 122.25 76.8135 122.497 76.374 122.936C75.9344 123.376 75.6875 123.972 75.6875 124.594V131.625H56.9375V124.594C56.9375 123.972 56.6906 123.376 56.251 122.936C55.8115 122.497 55.2154 122.25 54.5938 122.25C53.9722 122.25 53.376 122.497 52.9365 122.936C52.4969 123.376 52.25 123.972 52.25 124.594V131.625H47.5625V123.744C47.5615 122.368 47.9649 121.022 48.7225 119.873C49.4801 118.724 50.5586 117.822 51.824 117.281L60.3945 113.607C62.1885 114.662 64.2316 115.218 66.3125 115.218C68.3934 115.218 70.4365 114.662 72.2305 113.607L80.801 117.282ZM66.3125 73.0312V58.9688H73.3438V73.0312H66.3125ZM136.625 80.0625H73.3438V77.7188H75.6875C76.3091 77.7188 76.9052 77.4718 77.3448 77.0323C77.7843 76.5927 78.0312 75.9966 78.0312 75.375H136.625V80.0625ZM136.625 70.6875H78.0312V60.7163L99.909 41.9643C100.113 42.1484 100.349 42.295 100.604 42.397C103.751 45.247 107.772 46.9447 112.009 47.2124C116.246 47.4801 120.449 46.3019 123.929 43.8705C127.41 41.4392 129.962 37.8986 131.168 33.8281C132.375 29.7576 132.164 25.3982 130.571 21.463C128.978 17.5277 126.096 14.2497 122.397 12.1653C118.699 10.0808 114.402 9.31324 110.211 9.98818C106.019 10.6631 102.181 12.7406 99.3233 15.8807C96.466 19.0209 94.7589 23.0378 94.4814 27.2742L70.2383 44.9062H61.625V44.6625C62.9739 44.2783 64.161 43.4652 65.0068 42.3463C65.8525 41.2274 66.3109 39.8635 66.3125 38.4609V30.4406C67.8756 29.8872 69.1928 28.7993 70.0315 27.3689C70.8701 25.9385 71.1763 24.2577 70.8959 22.6234C70.6155 20.9892 69.7665 19.5066 68.499 18.4376C67.2315 17.3686 65.6269 16.7819 63.9688 16.7812H55.3118C53.2508 16.7743 51.229 17.3449 49.4758 18.4285C47.7226 19.512 46.308 21.0651 45.3925 22.9116C44.5206 24.661 44.1254 26.6093 44.2469 28.5602C44.3683 30.511 45.002 32.3953 46.0842 34.023L47.5625 36.2408V44.9062H41.1172C37.8549 44.9099 34.7273 46.2075 32.4205 48.5142C30.1137 50.821 28.8161 53.9487 28.8125 57.2109V70.6875H5.375V5.0625H136.625V70.6875Z" fill="black"/>
<path d="M103.812 56.625H106.156C106.778 56.625 107.374 56.3781 107.814 55.9385C108.253 55.499 108.5 54.9029 108.5 54.2812C108.5 53.6596 108.253 53.0635 107.814 52.624C107.374 52.1844 106.778 51.9375 106.156 51.9375H103.812C103.191 51.9375 102.595 52.1844 102.155 52.624C101.716 53.0635 101.469 53.6596 101.469 54.2812C101.469 54.9029 101.716 55.499 102.155 55.9385C102.595 56.3781 103.191 56.625 103.812 56.625Z" fill="black"/>
<path d="M127.25 51.9375H115.531C114.91 51.9375 114.314 52.1844 113.874 52.624C113.434 53.0635 113.188 53.6596 113.188 54.2812C113.188 54.9029 113.434 55.499 113.874 55.9385C114.314 56.3781 114.91 56.625 115.531 56.625H127.25C127.872 56.625 128.468 56.3781 128.907 55.9385C129.347 55.499 129.594 54.9029 129.594 54.2812C129.594 53.6596 129.347 53.0635 128.907 52.624C128.468 52.1844 127.872 51.9375 127.25 51.9375Z" fill="black"/>
<path d="M122.562 61.3125H103.812C103.191 61.3125 102.595 61.5594 102.155 61.999C101.716 62.4385 101.469 63.0346 101.469 63.6562C101.469 64.2779 101.716 64.874 102.155 65.3135C102.595 65.7531 103.191 66 103.812 66H122.562C123.184 66 123.78 65.7531 124.22 65.3135C124.659 64.874 124.906 64.2779 124.906 63.6562C124.906 63.0346 124.659 62.4385 124.22 61.999C123.78 61.5594 123.184 61.3125 122.562 61.3125Z" fill="black"/>
</svg>
