<svg width="150" height="150" viewBox="0 0 150 150" fill="none" xmlns="http://www.w3.org/2000/svg">
<path d="M75.0753 22.1681C75.049 22.1681 75.0264 22.1681 75 22.1681C74.9737 22.1681 74.9511 22.1681 74.9247 22.1681C67.3776 22.1681 61.2566 28.2855 61.2566 35.8362V42.6647H88.7435V35.8362C88.7435 28.2852 82.6222 22.1681 75.0753 22.1681Z" fill="#80B6FF"/>
<path d="M75.0001 22.1669C80.3108 22.1669 84.6159 17.8617 84.6159 12.5511C84.6159 7.24039 80.3108 2.93524 75.0001 2.93524C69.6894 2.93524 65.3843 7.24039 65.3843 12.5511C65.3843 17.8617 69.6894 22.1669 75.0001 22.1669Z" fill="#F2B394"/>
<path d="M61.2566 107.336V114.164C61.2566 121.715 67.3779 127.832 74.9247 127.832H75C75 127.832 75.049 127.832 75.0753 127.832C82.6225 127.832 88.7435 121.715 88.7435 114.164V107.336H61.2566Z" fill="#80B6FF"/>
<path d="M75.0001 147.065C80.3108 147.065 84.6159 142.76 84.6159 137.449C84.6159 132.138 80.3108 127.833 75.0001 127.833C69.6894 127.833 65.3843 132.138 65.3843 137.449C65.3843 142.76 69.6894 147.065 75.0001 147.065Z" fill="#F2B394"/>
<path d="M35.8364 61.2565C28.2857 61.2565 22.1682 67.3778 22.1682 74.9247V75C22.1682 75 22.1682 75.0489 22.1682 75.0753C22.1682 82.6224 28.2857 88.7434 35.8364 88.7434H42.6649V61.2565H35.8364Z" fill="#FF7D97"/>
<path d="M12.5511 84.6158C17.8618 84.6158 22.1669 80.3107 22.1669 75C22.1669 69.6893 17.8618 65.3842 12.5511 65.3842C7.24045 65.3842 2.9353 69.6893 2.9353 75C2.9353 80.3107 7.24045 84.6158 12.5511 84.6158Z" fill="#F2B394"/>
<path d="M114.164 61.2565H107.335V88.7434H114.164C121.714 88.7434 127.832 82.6221 127.832 75.0753C127.832 75.0489 127.832 75.0263 127.832 75C127.832 74.9736 127.832 74.9511 127.832 74.9247C127.832 67.3778 121.715 61.2565 114.164 61.2565Z" fill="#FF7D97"/>
<path d="M137.449 84.6158C142.76 84.6158 147.065 80.3107 147.065 75C147.065 69.6893 142.76 65.3842 137.449 65.3842C132.138 65.3842 127.833 69.6893 127.833 75C127.833 80.3107 132.138 84.6158 137.449 84.6158Z" fill="#F2B394"/>
<path d="M57.0248 37.5887C51.6854 32.2494 43.0317 32.2523 37.695 37.5887C37.6763 37.6075 37.6604 37.6233 37.6417 37.6421C37.6229 37.6608 37.6071 37.6766 37.5884 37.6954C32.252 43.0321 32.249 51.6858 37.5884 57.0252L42.4168 61.8536L61.8529 42.4175L57.0248 37.5887Z" fill="#CCF5FC"/>
<path d="M30.8421 40.4578C36.1528 40.4578 40.458 36.1527 40.458 30.842C40.458 25.5313 36.1528 21.2262 30.8421 21.2262C25.5315 21.2262 21.2263 25.5313 21.2263 30.842C21.2263 36.1527 25.5315 40.4578 30.8421 40.4578Z" fill="#FFDCD5"/>
<path d="M112.411 92.9751L107.583 88.1467L88.1467 107.583L92.9752 112.411C98.3145 117.75 106.968 117.748 112.305 112.411C112.324 112.392 112.34 112.377 112.358 112.358C112.377 112.339 112.393 112.323 112.412 112.305C117.748 106.968 117.75 98.3142 112.411 92.9751V92.9751Z" fill="#CCF5FC"/>
<path d="M119.158 128.774C124.469 128.774 128.774 124.469 128.774 119.158C128.774 113.847 124.469 109.542 119.158 109.542C113.847 109.542 109.542 113.847 109.542 119.158C109.542 124.469 113.847 128.774 119.158 128.774Z" fill="#FFDCD5"/>
<path d="M112.411 37.6954C112.393 37.6766 112.377 37.6608 112.358 37.6421C112.339 37.6233 112.323 37.6075 112.305 37.5887C106.968 32.2523 98.3143 32.2494 92.9749 37.5887L88.1465 42.4172L107.583 61.8533L112.411 57.0249C117.75 51.6858 117.748 43.0318 112.411 37.6954V37.6954Z" fill="#FFF2A0"/>
<path d="M119.158 40.4578C124.469 40.4578 128.774 36.1527 128.774 30.842C128.774 25.5313 124.469 21.2262 119.158 21.2262C113.847 21.2262 109.542 25.5313 109.542 30.842C109.542 36.1527 113.847 40.4578 119.158 40.4578Z" fill="#FFDCD5"/>
<path d="M42.4173 88.1467L37.5889 92.9751C32.2495 98.3144 32.2524 106.968 37.5889 112.305L37.6422 112.358L37.6955 112.412C43.0322 117.748 51.6859 117.751 57.0253 112.412L61.8537 107.583L42.4173 88.1467Z" fill="#FFF2A0"/>
<path d="M30.8421 128.774C36.1528 128.774 40.458 124.469 40.458 119.158C40.458 113.847 36.1528 109.542 30.8421 109.542C25.5315 109.542 21.2263 113.847 21.2263 119.158C21.2263 124.469 25.5315 128.774 30.8421 128.774Z" fill="#FFDCD5"/>
<path d="M98.3725 52.4724L98.1961 52.2929C92.1495 46.1341 83.8811 42.6647 75.2505 42.6647H74.7495C66.1187 42.6647 57.8502 46.1344 51.8039 52.2929L51.6275 52.4724C45.7245 58.485 42.4175 66.5742 42.4175 75C42.4175 83.4258 45.7248 91.5152 51.6275 97.5275L51.8039 97.7071C57.8505 103.866 66.1189 107.335 74.7495 107.335H75.2505C83.8813 107.335 92.1498 103.866 98.1961 97.7071L98.3725 97.5275C104.275 91.5149 107.583 83.4258 107.583 75C107.583 66.5742 104.275 58.4848 98.3725 52.4724Z" fill="#CCF5FC"/>
<path d="M74.9999 63.4479C70.5134 58.9614 63.2396 58.9614 58.7531 63.4479C54.2666 67.9345 54.2666 75.2083 58.7531 79.6948L74.9999 95.9417L91.2468 79.6948C95.7333 75.2083 95.7333 67.9345 91.2468 63.4479C86.7603 58.9614 79.4865 58.9614 74.9999 63.4479V63.4479Z" fill="#FF7D97"/>
<path d="M137.449 62.4489C133.882 62.4489 130.661 63.9469 128.373 66.3439C125.627 61.8126 120.774 58.696 115.184 58.3556C118.896 54.1617 120.123 48.5265 118.861 43.3802C118.96 43.3825 119.059 43.3872 119.158 43.3872C122.372 43.3872 125.586 42.1638 128.033 39.7172C132.927 34.8234 132.927 26.8608 128.033 21.9671C123.139 17.0733 115.177 17.0733 110.283 21.9671C107.761 24.4893 106.542 27.8268 106.62 31.1391C101.474 29.8772 95.8386 31.1048 91.6444 34.817C91.304 29.2266 88.1874 24.3738 83.6558 21.6272C86.0528 19.34 87.5508 16.1186 87.5508 12.5517C87.5511 5.63027 81.9208 0 75 0C68.0792 0 62.4489 5.63027 62.4489 12.5511C62.4489 16.118 63.9469 19.3395 66.3439 21.6267C61.8126 24.3732 58.696 29.226 58.3556 34.8164C54.1614 31.1042 48.5265 29.8767 43.3802 31.1388C43.4578 27.8265 42.2391 24.4893 39.7169 21.9671C34.8229 17.0733 26.8605 17.0733 21.9668 21.9671C17.073 26.8608 17.073 34.8234 21.9668 39.7172C24.4137 42.1641 27.6278 43.3872 30.842 43.3872C30.941 43.3872 31.0397 43.3825 31.1388 43.3802C29.8767 48.5265 31.1042 54.1617 34.8167 58.3556C29.2263 58.696 24.3735 61.8126 21.627 66.3442C19.3397 63.9472 16.1183 62.4492 12.5514 62.4492C5.63027 62.4489 0 68.0792 0 75C0 81.9208 5.63027 87.5511 12.5511 87.5511C16.118 87.5511 19.3395 86.0531 21.6267 83.6561C24.3732 88.1874 29.226 91.304 34.8164 91.6444C31.1042 95.8383 29.8767 101.474 31.1388 106.62C27.8265 106.542 24.4893 107.761 21.9671 110.283C17.0733 115.177 17.0733 123.139 21.9671 128.033C24.414 130.48 27.6281 131.703 30.8423 131.703C34.0564 131.703 37.2703 130.48 39.7175 128.033C42.2396 125.511 43.4581 122.174 43.3808 118.862C44.6862 119.182 46.0233 119.342 47.3607 119.342C51.2938 119.342 55.2264 117.953 58.3562 115.183C58.6966 120.774 61.8132 125.626 66.3448 128.373C63.9478 130.66 62.4498 133.882 62.4498 137.449C62.4489 144.37 68.0792 150 75 150C81.9208 150 87.5511 144.37 87.5511 137.449C87.5511 133.882 86.0531 130.661 83.6561 128.373C88.1874 125.627 91.304 120.774 91.6444 115.184C94.7745 117.954 98.7062 119.342 102.64 119.342C103.977 119.342 105.314 119.182 106.62 118.862C106.542 122.174 107.761 125.511 110.283 128.033C112.73 130.48 115.944 131.704 119.158 131.704C122.372 131.704 125.586 130.48 128.033 128.033C132.927 123.14 132.927 115.177 128.033 110.283C125.511 107.761 122.174 106.542 118.862 106.62C120.124 101.474 118.896 95.8389 115.184 91.6447C120.774 91.3043 125.627 88.1877 128.374 83.6561C130.661 86.0531 133.882 87.5511 137.449 87.5511C144.37 87.5511 150 81.9208 150 75C150 68.0792 144.37 62.4489 137.449 62.4489V62.4489ZM75.2587 105.458H74.7413C66.6686 105.458 58.795 102.154 53.1398 96.3937L52.9576 96.2077C47.3663 90.5127 44.2869 82.9808 44.2869 74.9997C44.2869 67.0187 47.3663 59.4867 52.9579 53.7914L53.1395 53.6062C58.795 47.8459 66.6686 44.5421 74.7413 44.5421H75.2587C83.3314 44.5421 91.205 47.8459 96.8602 53.606L97.0421 53.7914L97.0424 53.7917C102.634 59.4867 105.713 67.0187 105.713 74.9997C105.713 82.9808 102.634 90.5127 97.0421 96.208L96.8605 96.3932C91.205 102.154 83.3314 105.458 75.2587 105.458V105.458ZM114.434 26.1185C115.737 24.8159 117.447 24.1649 119.158 24.1649C120.869 24.1649 122.579 24.8162 123.882 26.1185C126.486 28.7229 126.486 32.961 123.882 35.5658C121.277 38.1706 117.039 38.1706 114.434 35.5658C111.83 32.961 111.83 28.7229 114.434 26.1185V26.1185ZM110.229 39.6645L110.335 39.7708C114.52 43.9553 114.52 50.7645 110.335 54.9492L107.327 57.9571C105.72 54.958 103.678 52.1707 101.232 49.679L101.05 49.493C98.3786 46.7725 95.2922 44.5131 91.9415 42.7729L95.0505 39.6639C99.2355 35.48 106.044 35.48 110.229 39.6645V39.6645ZM75 5.8708C78.6835 5.8708 81.6803 8.86758 81.6803 12.5511C81.6803 16.2346 78.6835 19.2313 75 19.2313C71.3165 19.2313 68.3197 16.2346 68.3197 12.5511C68.3197 8.86758 71.3165 5.8708 75 5.8708V5.8708ZM74.9247 25.1033H75.0753C80.9936 25.1033 85.8082 29.918 85.8082 35.8362V40.2627C82.4077 39.2197 78.8499 38.6716 75.259 38.6716H74.7416C71.1507 38.6716 67.5926 39.22 64.1924 40.2627V35.8359C64.1921 29.918 69.0067 25.1033 74.9247 25.1033V25.1033ZM54.9495 39.6645L58.0585 42.7734C54.7078 44.5137 51.6211 46.773 48.9501 49.4938L48.7685 49.679C46.3219 52.1707 44.2802 54.958 42.6727 57.9574L39.6647 54.9492C35.48 50.7647 35.48 43.9556 39.6647 39.7711L39.7711 39.6647C43.9559 35.48 50.7647 35.48 54.9495 39.6645ZM26.1185 35.5655C23.5137 32.961 23.5137 28.7229 26.1185 26.1182C27.4207 24.8156 29.1313 24.1646 30.842 24.1646C32.5526 24.1646 34.2633 24.8159 35.5655 26.1182C38.1703 28.7227 38.1703 32.9607 35.5655 35.5655C32.961 38.1706 28.7229 38.1706 26.1185 35.5655ZM12.5511 81.6803C8.86758 81.6803 5.8708 78.6835 5.8708 75C5.8708 71.3165 8.86758 68.3197 12.5511 68.3197C16.2346 68.3197 19.2313 71.3165 19.2313 75C19.2313 78.6835 16.2346 81.6803 12.5511 81.6803V81.6803ZM25.1033 75.0753V74.9247C25.1033 69.0064 29.918 64.1918 35.8362 64.1918H40.057C38.9783 67.6477 38.4161 71.2825 38.4161 74.9997C38.4161 78.7169 38.978 82.3521 40.057 85.8076H35.8359C29.918 85.8079 25.1033 80.9933 25.1033 75.0753ZM35.5655 123.882C32.961 126.486 28.7229 126.486 26.1182 123.882C23.5134 121.277 23.5134 117.039 26.1182 114.434C27.4204 113.132 29.1311 112.481 30.8417 112.481C32.5523 112.481 34.263 113.132 35.5652 114.434C38.1703 117.039 38.1703 121.277 35.5655 123.882V123.882ZM39.7711 110.336L39.6647 110.229C35.48 106.045 35.48 99.2355 39.6647 95.0508L42.6727 92.0429C44.2802 95.042 46.3219 97.8293 48.7682 100.321L48.9504 100.507C51.6214 103.228 54.7078 105.487 58.0585 107.227L54.9495 110.336C50.7645 114.52 43.9559 114.52 39.7711 110.336V110.336ZM75 144.129C71.3165 144.129 68.3197 141.132 68.3197 137.449C68.3197 133.765 71.3165 130.769 75 130.769C78.6835 130.769 81.6803 133.765 81.6803 137.449C81.6803 141.132 78.6835 144.129 75 144.129V144.129ZM75.0753 124.897H74.9247C69.0064 124.897 64.1918 120.082 64.1918 114.164V109.737C67.5923 110.78 71.1501 111.328 74.741 111.328H75.2584C78.8493 111.328 82.4074 110.78 85.8076 109.737V114.164C85.8079 120.082 80.9933 124.897 75.0753 124.897ZM95.0505 110.336L91.9415 107.227C95.2922 105.486 98.3789 103.227 101.05 100.506L101.232 100.321C103.678 97.8293 105.72 95.042 107.327 92.0426L110.335 95.0508C114.52 99.2353 114.52 106.044 110.335 110.229L110.229 110.335C106.044 114.52 99.2353 114.52 95.0505 110.336V110.336ZM123.882 114.434C126.486 117.039 126.486 121.277 123.882 123.882C121.277 126.487 117.039 126.487 114.434 123.882C111.829 121.277 111.829 117.039 114.434 114.434C115.736 113.132 117.447 112.481 119.158 112.481C120.869 112.481 122.579 113.132 123.882 114.434ZM124.897 75.0753C124.897 80.9936 120.082 85.8082 114.164 85.8082H109.943C111.022 82.3523 111.584 78.7175 111.584 75.0003C111.584 71.2831 111.022 67.6479 109.943 64.1924H114.164C120.082 64.1924 124.897 69.007 124.897 74.9253V75.0753ZM137.449 81.6803C133.765 81.6803 130.769 78.6835 130.769 75C130.769 71.3165 133.765 68.3197 137.449 68.3197C141.132 68.3197 144.129 71.3165 144.129 75C144.129 78.6835 141.132 81.6803 137.449 81.6803Z" fill="black"/>
<path d="M97.4836 68.4618C96.9 65.7023 95.5336 63.186 93.532 61.1845C90.7799 58.432 87.1204 56.9165 83.2283 56.9165C80.2471 56.9165 77.4026 57.8057 74.9979 59.4586C69.3267 55.5773 61.5003 56.1527 56.468 61.1848C50.7867 66.8663 50.7867 76.1109 56.468 81.7925L72.9243 98.2488C73.4977 98.8219 74.2488 99.1084 75 99.1084C75.7512 99.1084 76.5026 98.8219 77.0757 98.2488L83.2477 92.0771C84.394 90.9308 84.394 89.0722 83.2477 87.9258C82.1013 86.7794 80.2427 86.7797 79.0963 87.9258L75 92.0215L60.6193 77.6408C57.2268 74.2482 57.2268 68.7281 60.6193 65.3355C62.2626 63.6923 64.4476 62.787 66.7717 62.787C69.0958 62.787 71.2808 63.6923 72.924 65.3355C74.0704 66.4816 75.929 66.4816 77.0754 65.3355C80.468 61.9427 85.9878 61.943 89.3804 65.3355C90.576 66.5314 91.3916 68.0323 91.7394 69.6765C92.0745 71.2626 93.6328 72.2763 95.2186 71.9411C96.8051 71.6057 97.819 70.0479 97.4836 68.4618V68.4618Z" fill="black"/>
<path d="M93.0881 82.0095C93.8227 80.5678 93.2495 78.8036 91.8079 78.069C90.3662 77.3344 88.602 77.9076 87.8674 79.3493C87.1329 80.791 87.706 82.5552 89.1477 83.2897C90.5894 84.0243 92.3536 83.4511 93.0881 82.0095Z" fill="black"/>
</svg>
