<svg width="150" height="138" viewBox="0 0 150 138" fill="none" xmlns="http://www.w3.org/2000/svg">
<path fill-rule="evenodd" clip-rule="evenodd" d="M29.4486 44.0631L62.6584 48.0739L103.571 44.0631C106.74 44.0631 109.317 41.4777 109.317 38.3171C109.317 35.1475 106.74 32.562 103.571 32.562H99.9583L55.7171 23.2389L99.9583 13.9248H103.571C106.74 13.9248 109.317 11.3394 109.317 8.16976C109.317 5.00013 106.74 2.42377 103.571 2.42377H29.4486C17.9745 2.42377 8.625 11.7733 8.625 23.2389C8.625 28.7725 10.8208 34.0407 14.734 37.9538C18.6472 41.867 23.915 44.0631 29.4486 44.0631Z" fill="#FFDC00"/>
<path fill-rule="evenodd" clip-rule="evenodd" d="M29.4486 32.5628H99.9583C97.001 26.312 97.0189 20.0966 99.9583 13.9255H29.4486C24.3225 13.9255 20.1257 18.1223 20.1257 23.2396C20.1257 25.7275 21.1083 28.0648 22.8615 29.8267C24.6234 31.5799 26.9607 32.5628 29.4486 32.5628Z" fill="#F9F7F8"/>
<path fill-rule="evenodd" clip-rule="evenodd" d="M99.9583 13.9255H29.4486C24.3225 13.9255 20.1257 18.1223 20.1257 23.2396C20.1257 24.6652 20.4533 26.0375 21.0553 27.2858C22.5694 24.1692 25.7654 22.0001 29.4486 22.0001L97.7803 22.0089C97.9485 19.2998 98.6833 16.6083 99.9583 13.9255Z" fill="#DDDAEC"/>
<path fill-rule="evenodd" clip-rule="evenodd" d="M103.57 2.42377H76.1953C77.8421 5.9476 79.0462 9.81656 79.7367 13.9249H99.9583H103.571C106.74 13.9249 109.317 11.3394 109.317 8.16978C109.317 5.00014 106.74 2.42377 103.57 2.42377Z" fill="#FFD064"/>
<path fill-rule="evenodd" clip-rule="evenodd" d="M66.6777 95.4325L116.992 89.8193C122.844 89.8193 127.635 85.0292 127.635 79.1769V66.9411V54.7052C127.635 48.8529 122.845 44.0629 116.992 44.0629H103.57H29.4487H14.238C11.1481 44.0629 8.62476 46.5862 8.62476 49.6761C8.62476 52.7661 11.1481 55.2894 14.238 55.2894H19.5235L116.408 66.9411L19.5238 78.5924H14.238C11.1481 78.5924 8.62476 81.1157 8.62476 84.2057C8.62476 87.2956 11.1481 89.819 14.238 89.819L66.6777 95.4325Z" fill="#A7E9A6"/>
<path fill-rule="evenodd" clip-rule="evenodd" d="M19.5237 78.5933H113.575C115.133 78.5933 116.408 77.3183 116.408 75.76V58.1233C116.408 56.565 115.133 55.29 113.575 55.29H19.5237C21.3741 59.168 22.3037 63.046 22.2949 66.9416C22.2949 70.8109 21.3741 74.6977 19.5237 78.5933Z" fill="#F9F7F8"/>
<path fill-rule="evenodd" clip-rule="evenodd" d="M113.575 55.29H19.5237C20.4357 57.1937 21.1174 59.0971 21.5777 61.0005H107.006C108.555 61.0005 109.83 62.2755 109.83 63.8338V78.5929H113.575C115.133 78.5929 116.408 77.3179 116.408 75.7596V58.123C116.408 56.565 115.133 55.29 113.575 55.29Z" fill="#DDDAEC"/>
<path fill-rule="evenodd" clip-rule="evenodd" d="M99.9583 32.562H79.1258C78.1432 36.7233 76.6025 40.5923 74.6194 44.0631H103.571C106.74 44.0631 109.317 41.4776 109.317 38.3171C109.317 35.1475 106.74 32.562 103.571 32.562H99.9583Z" fill="#FFD064"/>
<path fill-rule="evenodd" clip-rule="evenodd" d="M116.992 44.0629H103.57H95.0001C96.8417 47.4716 98.2582 51.252 99.1611 55.2894H113.575C115.133 55.2894 116.408 56.5644 116.408 58.1227V75.7594C116.408 77.3177 115.133 78.5927 113.575 78.5927H109.83H98.4352C97.2398 82.6831 95.5046 86.4727 93.3179 89.8193H116.992C122.844 89.8193 127.634 85.0292 127.634 79.1769V66.9411V54.7052C127.634 48.8526 122.845 44.0629 116.992 44.0629Z" fill="#7FDBAE"/>
<path fill-rule="evenodd" clip-rule="evenodd" d="M13.908 90H12.5158C6.72825 90 2 94.8155 2 100.699V113V125.301C2 131.184 6.73694 136 12.5158 136H140.449C142.76 136 144.757 134.54 145.589 132.484C145.851 131.826 146 131.105 146 130.357C146 129.6 145.851 128.879 145.589 128.221C144.757 126.165 142.76 124.714 140.449 124.714H135.222L13.1025 114.033L135.222 101.287H140.449C142.76 101.287 144.757 99.8358 145.589 97.7797C145.851 97.1211 146 96.4001 146 95.6435C146 94.8957 145.851 94.1749 145.589 93.5161C144.757 91.46 142.76 90.0003 140.449 90.0003C98.2716 90 56.0856 90 13.908 90Z" fill="#FFDC00"/>
<path fill-rule="evenodd" clip-rule="evenodd" d="M136.904 124.35H113.778C112.273 128.52 110.184 132.31 107.643 135.577H142.189C144.527 135.577 146.545 134.125 147.386 132.079C147.652 131.424 147.802 130.707 147.802 129.963C147.802 129.211 147.652 128.493 147.386 127.838C146.545 125.793 144.527 124.35 142.189 124.35H136.904Z" fill="#FFD064"/>
<path fill-rule="evenodd" clip-rule="evenodd" d="M142.19 89.82H116.992H112.53C114.089 93.2817 115.239 97.0534 115.877 101.047H136.904H142.19C144.527 101.047 146.545 99.6034 147.387 97.5582C147.652 96.9031 147.803 96.1859 147.803 95.4333C147.803 94.6894 147.652 93.9726 147.387 93.3172C146.546 91.272 144.527 89.82 142.19 89.82Z" fill="#FFD064"/>
<path fill-rule="evenodd" clip-rule="evenodd" d="M134.133 112.698C134.124 108.802 135.054 104.915 136.904 101.046C71.9456 101.046 57.8417 101.046 16.2566 101.046C14.6983 101.046 13.4236 102.321 13.4236 103.88V121.516C13.4236 123.075 14.6986 124.35 16.2566 124.35H136.904C135.054 120.454 134.133 116.567 134.133 112.698Z" fill="#F9F7F8"/>
<path fill-rule="evenodd" clip-rule="evenodd" d="M40.2231 101.046H16.2568C14.6985 101.046 13.4238 102.321 13.4238 103.879V112.698C13.4238 111.14 14.6988 109.865 16.2568 109.865H40.2234H43.2604H55.611H58.6389H134.292C134.629 106.925 135.505 103.986 136.904 101.046H58.6474H40.2231Z" fill="#DDDAEC"/>
<path fill-rule="evenodd" clip-rule="evenodd" d="M40.2232 110.537C40.1169 111.883 40.6392 112.317 41.7727 111.281L49.4309 103.977L57.0891 111.281C58.2223 112.317 58.7535 111.883 58.6386 110.537C58.6474 96.0079 58.6474 81.4702 58.6562 66.941H40.2144C40.2144 81.4702 40.2232 96.0082 40.2232 110.537Z" fill="#EB5468"/>
<path fill-rule="evenodd" clip-rule="evenodd" d="M58.6565 66.941H52.3618C52.353 80.2127 52.353 93.4845 52.353 106.757L55.6111 109.864L57.0897 111.281C58.2229 112.317 58.7541 111.883 58.6393 110.537V109.864C58.6475 95.5563 58.6475 81.2487 58.6565 66.941Z" fill="#E5384F"/>
<path d="M142.19 122.152H138.328C135.65 115.787 135.648 109.577 138.325 103.243H142.19C146.496 103.243 150 99.7398 150 95.4329C150 91.1262 146.496 87.6223 142.19 87.6223H126.651C128.629 85.3629 129.831 82.4089 129.831 79.1772V54.7055C129.831 47.6256 124.072 41.8659 116.992 41.8659H110.674C111.21 40.7971 111.514 39.5921 111.514 38.3171C111.514 33.9323 107.95 30.3648 103.571 30.3648H101.397C99.4573 25.5698 99.4562 20.8864 101.394 16.1221H103.571C107.95 16.1221 111.514 12.5546 111.514 8.16976C111.514 3.78988 107.95 0.226501 103.571 0.226501H29.4486C16.7549 0.226501 6.42773 10.5498 6.42773 23.2389C6.42773 29.3754 8.82598 35.1531 13.1801 39.5075C14.0458 40.3732 14.9698 41.158 15.9396 41.8656H14.238C9.93135 41.8656 6.42773 45.3692 6.42773 49.6761C6.42773 53.983 9.93135 57.4867 14.238 57.4867H18.1022C20.7794 63.8192 20.7785 70.0301 18.0993 76.3952H14.238C9.93135 76.3952 6.42773 79.8988 6.42773 84.2057C6.42773 85.8534 6.9419 87.3824 7.81611 88.6436C3.22588 90.6021 0 95.1619 0 100.462V124.934C0 132.014 5.75566 137.773 12.8303 137.773H142.189C146.496 137.773 150 134.27 150 129.963C150 125.656 146.496 122.152 142.19 122.152ZM142.19 92.0168C144.073 92.0168 145.605 93.5494 145.605 95.4329C145.605 97.3163 144.073 98.8489 142.19 98.8489H102.534C101.321 98.8489 100.337 99.8327 100.337 101.046C100.337 102.26 101.321 103.243 102.534 103.243H133.612C132.753 105.655 132.228 108.076 132.03 110.501C132.03 110.501 131.152 114.85 133.617 122.152H16.2568C15.9123 122.152 15.6211 121.861 15.6211 121.516V103.879C15.6211 103.535 15.9123 103.244 16.2568 103.244H38.0247L38.0262 110.46C37.8876 112.62 38.9426 113.472 39.5903 113.788C40.2469 114.109 41.5957 114.42 43.2554 112.903C43.2668 112.893 43.2782 112.882 43.2894 112.872L49.4312 107.014L55.5729 112.872C55.5841 112.882 55.5955 112.893 55.6069 112.903C56.5784 113.791 57.4433 114.053 58.1262 114.053C58.614 114.053 59.0089 113.919 59.2831 113.784C59.9317 113.465 60.9853 112.61 60.8361 110.454L60.8391 103.244H91.7156C92.9294 103.244 93.9129 102.26 93.9129 101.046C93.9129 99.833 92.9294 98.8492 91.7156 98.8492H60.8405L60.8435 92.0171H142.19V92.0168ZM24.399 64.7444C24.201 62.3201 23.6657 59.8993 22.8076 57.4872H113.575C113.92 57.4872 114.211 57.7785 114.211 58.123V75.7597C114.211 76.1042 113.92 76.3955 113.575 76.3955H60.8499L60.8528 69.1383H76.2305C77.4442 69.1383 78.4277 68.1545 78.4277 66.941C78.4277 65.7276 77.4442 64.7438 76.2305 64.7438H24.399V64.7444ZM38.0191 76.3957H22.8026C23.6602 73.9805 24.1963 71.5597 24.3967 69.1386H38.0177L38.0191 76.3957ZM56.4583 69.1389L56.4425 107.628L50.9473 102.387C50.0985 101.577 48.7632 101.577 47.9142 102.387L42.4198 107.627L42.4119 69.1386H56.4583V69.1389ZM10.8223 23.2392C10.8223 12.9733 19.178 4.62133 29.4486 4.62133H103.571C105.527 4.62133 107.119 6.21332 107.119 8.17006C107.119 10.1318 105.527 11.7279 103.571 11.7279H63.0653C61.8519 11.7279 60.8681 12.7117 60.8681 13.9251C60.8681 15.1386 61.8519 16.1224 63.0653 16.1224H96.7119C95.1609 20.8492 95.163 25.6178 96.7178 30.3651H29.4486C27.559 30.3651 25.7698 29.6206 24.4192 28.2768C23.0675 26.918 22.323 25.1291 22.323 23.2392C22.323 19.3149 25.5196 16.1224 29.4486 16.1224H52.2466C53.4601 16.1224 54.4439 15.1386 54.4439 13.9251C54.4439 12.7117 53.4601 11.7279 52.2466 11.7279H29.4486C23.0965 11.7279 17.9285 16.8917 17.9285 23.2392C17.9285 26.2987 19.1273 29.1885 21.3117 31.384C23.4996 33.5608 26.3892 34.7596 29.4486 34.7596H103.571C105.527 34.7596 107.119 36.3557 107.119 38.3174C107.119 40.2742 105.527 41.8661 103.571 41.8661H29.4486C24.486 41.8661 19.812 39.9252 16.2876 36.4005C12.7632 32.8761 10.8223 28.2021 10.8223 23.2392ZM14.238 53.0927C12.3545 53.0927 10.8223 51.5605 10.8223 49.6767C10.8223 47.7932 12.3545 46.2607 14.238 46.2607H116.992C121.649 46.2607 125.437 50.0491 125.437 54.7058V79.1775C125.437 83.8342 121.649 87.6226 116.992 87.6226H60.8452L60.8481 80.7906H113.575C116.349 80.7906 118.605 78.5338 118.605 75.7603V58.1236C118.605 55.3497 116.349 53.0933 113.575 53.0933H14.238V53.0927ZM14.238 80.7903H38.02L38.0215 87.6223H14.2383C12.3548 87.6223 10.8226 86.0898 10.8226 84.2063C10.8223 82.3228 12.3545 80.7903 14.238 80.7903ZM142.19 133.379H12.8303C8.17881 133.379 4.39453 129.59 4.39453 124.934V100.462C4.39453 95.8052 8.17881 92.0168 12.8303 92.0168H38.0221L38.0235 98.8489H16.2568C13.483 98.8489 11.2266 101.106 11.2266 103.879V121.516C11.2266 124.29 13.4833 126.546 16.2568 126.546H142.19C144.073 126.546 145.605 128.079 145.605 129.962C145.605 131.846 144.073 133.379 142.19 133.379Z" fill="black"/>
</svg>
