<svg width="150" height="150" viewBox="0 0 150 150" fill="none" xmlns="http://www.w3.org/2000/svg">
<path d="M112.5 7.49998V102.5C112.492 105.258 110.258 107.492 107.5 107.5C10 107.5 16.75 107.397 15 107.725V2.72498C16.75 2.39498 9.69 2.49998 107.5 2.49998C110.258 2.50822 112.492 4.74198 112.5 7.49998V7.49998Z" fill="#FFDC00"/>
<path d="M112.5 7.49997V102.5C112.492 105.258 110.258 107.492 107.5 107.5H100C102.758 107.492 104.992 105.258 105 102.5V7.49997C104.992 4.74197 102.758 2.50821 100 2.49997H107.5C110.258 2.50821 112.492 4.74197 112.5 7.49997Z" fill="#FEC108"/>
<path d="M147.5 102.5V112.5H99.675C100.437 110.738 101.384 109.062 102.5 107.5H107.5C110.258 107.492 112.492 105.258 112.5 102.5H147.5Z" fill="white"/>
<path d="M112.5 122.5V132.5C112.492 135.258 110.258 137.492 107.5 137.5H102.5C99.3053 133.146 97.5566 127.9 97.5 122.5H112.5Z" fill="#783E22"/>
<path d="M147.5 95V102.5H112.5V92.5H145C146.381 92.5 147.5 93.6193 147.5 95Z" fill="#33AB30"/>
<path d="M140 95V102.5H112.5V92.5H137.5C138.881 92.5 140 93.6193 140 95Z" fill="#33AB30"/>
<path d="M122.5 12.5H135V42.5H122.5V12.5Z" fill="#FFE0B2"/>
<path d="M112.5 12.5H122.5V42.5H112.5V12.5Z" fill="#3F51B5"/>
<path d="M147.5 15V40C147.5 41.3807 146.381 42.5 145 42.5H135V12.5H145C146.381 12.5 147.5 13.6193 147.5 15Z" fill="#F44335"/>
<path d="M147.5 55V80C147.576 81.2909 146.602 82.4039 145.313 82.5H112.5V52.5H145.313C146.602 52.5961 147.576 53.7091 147.5 55Z" fill="#DFC49C"/>
<path d="M140 55V80C140.093 81.27 139.153 82.3809 137.885 82.5H112.5V52.5H137.885C139.153 52.6191 140.093 53.73 140 55V55Z" fill="#FFE0B2"/>
<path d="M130 72.5C132.761 72.5 135 70.2614 135 67.5C135 64.7385 132.761 62.5 130 62.5C127.239 62.5 125 64.7385 125 67.5C125 70.2614 127.239 72.5 130 72.5Z" fill="#F44335"/>
<path d="M15 2.72498V107.725C7.78849 108.944 2.50741 115.186 2.5 122.5L2.5 17.5C2.4971 10.1824 7.78305 3.93439 15 2.72498V2.72498Z" fill="#F44335"/>
<path d="M102.5 137.5C12.5501 137.5 17.5601 137.577 16.0751 137.35C9.04613 136.682 3.44057 131.191 2.62644 124.178C1.81231 117.164 6.01113 110.536 12.7001 108.275C15.9051 107.17 12.5851 107.5 102.5 107.5C95.8335 116.389 95.8335 128.611 102.5 137.5V137.5Z" fill="#DFC49C"/>
<path d="M95.0001 137.5C11.7726 137.5 17.5176 137.57 16.0751 137.35C9.04613 136.682 3.44057 131.191 2.62644 124.178C1.81231 117.164 6.01113 110.536 12.7001 108.275C16.1026 107.103 14.7001 107.5 95.0001 107.5C88.3335 116.389 88.3335 128.611 95.0001 137.5V137.5Z" fill="#FFE0B2"/>
<path d="M94.85 59.375C92.3803 65.2059 88.3273 70.2288 83.15 73.875C77.339 71.9681 71.1223 71.6573 65.15 72.975C61.256 74.0159 57.6821 76.0091 54.75 78.775C51.5813 77.9044 48.5574 76.5735 45.775 74.825C46.2861 73.1632 46.6787 71.4673 46.95 69.75C47.0381 67.2564 46.8114 64.7618 46.275 62.325C45.7 57.175 49.25 53.175 49.675 48.2C50.1475 42.805 43.2225 43.4025 39.3 41.8C35.7524 40.0775 33.3095 36.6856 32.8 32.775C34.2369 29.4751 36.1952 26.4278 38.6 23.75C43.753 23.8058 48.8928 23.218 53.9 22C59.2244 21.0225 63.734 17.5026 65.975 12.575C70.4096 12.8629 74.7431 14.027 78.725 16V16.025L78.7 16.05C75.8991 19.3562 72.3152 21.9087 68.275 23.475C59.5925 27.505 59.505 36.475 69.375 38.65C73.95 39.675 78.05 42.225 78.075 47.375C78.075 52.69 74.5325 56.875 74.45 61.175C74.4121 62.6762 75.0788 64.1086 76.2519 65.0461C77.425 65.9836 78.9692 66.3181 80.425 65.95C85.71 65.22 88.215 60.82 94.85 59.375V59.375Z" fill="#00BCD4"/>
<path d="M46.2751 62.325C46.8051 67.0975 47.9201 67.7175 45.7751 74.8C31.6631 65.9198 26.1505 48.0652 32.8001 32.775C33.3096 36.6856 35.7525 40.0775 39.3001 41.8C43.2201 43.4 50.1476 42.8 49.6751 48.2C49.2501 53.175 45.7001 57.175 46.2751 62.325Z" fill="#60A917"/>
<path d="M65.9751 12.575C63.734 17.5026 59.2244 21.0225 53.9001 22C48.8928 23.218 43.7531 23.8058 38.6001 23.75C45.5123 16.001 55.6147 11.877 65.9751 12.575Z" fill="#549414"/>
<path d="M83.15 73.85V73.875C74.8932 79.675 64.473 81.4728 54.75 78.775C57.682 76.0091 61.256 74.016 65.15 72.975C71.1214 71.6644 77.3339 71.9664 83.15 73.85V73.85Z" fill="#549414"/>
<path d="M97.5 46.25C97.5006 50.7579 96.5996 55.2204 94.85 59.375C91.9716 60.1118 89.2577 61.384 86.85 63.125C80.055 68.215 74.31 65.9075 74.45 61.175C74.5325 56.8575 78.075 52.705 78.075 47.375C78.05 42.225 73.95 39.675 69.375 38.65C59.5 36.4725 59.5875 27.5 68.275 23.475C71.0512 22.3233 73.6451 20.7737 75.975 18.875C76.9773 18.0115 77.8979 17.0574 78.725 16.025C90.1732 21.7633 97.4291 33.4443 97.5 46.25V46.25Z" fill="#549414"/>
<path d="M45 122.5V145C44.9973 145.866 44.5462 146.67 43.8078 147.123C43.0693 147.576 42.1488 147.615 41.375 147.225L36.125 144.6C35.4158 144.25 34.5841 144.25 33.875 144.6L28.625 147.225C27.8965 147.598 27.031 147.588 26.3115 147.198C25.5919 146.808 25.1106 146.089 25.025 145.275C24.9425 145.025 25 143.025 25 122.5H45Z" fill="#F44335"/>
<path d="M37.5001 122.5C37.5001 147.52 37.5201 144.75 37.4651 145.27L41.3751 147.225C42.1489 147.615 43.0694 147.576 43.8079 147.123C44.5464 146.67 44.9975 145.866 45.0001 145V122.5H37.5001Z" fill="#C81E1E"/>
<path d="M147.5 112.5V120C147.5 121.381 146.381 122.5 145 122.5H97.5C97.4993 119.049 98.2411 115.639 99.675 112.5H147.5Z" fill="#FF0000"/>
<path d="M140.5 113V120.5C140.5 121.881 139.381 123 138 123H98C97.9993 119.549 98.7411 116.139 100.175 113H140.5Z" fill="#FF0000"/>
<path d="M140 102.5H147.5V112.5H140V102.5Z" fill="white"/>
<path d="M0 17.5V122.5C0.0110216 132.16 7.83959 139.989 17.5 140H22.5V145C22.4983 146.737 23.3978 148.35 24.8759 149.261C26.3541 150.172 28.1992 150.251 29.75 149.47L35 146.838L40.2625 149.47C41.8122 150.245 43.653 150.163 45.1274 149.253C46.6018 148.342 47.4995 146.733 47.5 145V140H107.5C111.642 140 115 136.642 115 132.5V125H145C147.761 125 150 122.761 150 120V95C150 92.2386 147.761 90 145 90H115V85H145C147.761 85 150 82.7614 150 80V55C150 52.2386 147.761 50 145 50H115V45H145C147.761 45 150 42.7614 150 40V15C150 12.2386 147.761 10 145 10H115V7.5C115 3.35786 111.642 0 107.5 0H17.5C7.83959 0.0110216 0.0110216 7.83959 0 17.5ZM5 17.5C5.00653 12.5357 7.95013 8.04572 12.5 6.06V105.723C9.64634 106.561 7.0611 108.131 5 110.275V17.5ZM37.25 142.365C35.8405 141.665 34.1845 141.665 32.775 142.365L27.5 145V125H42.5V145L37.25 142.365ZM47.5 125H57.5C58.8807 125 60 123.881 60 122.5C60 121.119 58.8807 120 57.5 120H15C13.6193 120 12.5 121.119 12.5 122.5C12.5 123.881 13.6193 125 15 125H22.5V135H17.5C10.5964 135 5 129.404 5 122.5C5 115.596 10.5964 110 17.5 110H98.075C93.976 117.829 93.976 127.171 98.075 135H47.5V125ZM114.54 105H145V110H107.5C110.667 109.987 113.484 107.986 114.54 105ZM110 132.5C110 133.881 108.881 135 107.5 135H103.848C101.868 131.992 100.602 128.572 100.145 125H110V132.5ZM100.145 120C100.348 118.292 100.752 116.614 101.348 115H145V120H100.145ZM145 95V100H115V95H145ZM145 55V80H115V55H145ZM125 40V15H132.5V40H125ZM145 40H137.5V15H145V40ZM120 15V40H115V15H120ZM110 7.5V102.5C110 103.881 108.881 105 107.5 105H17.5V5H107.5C108.881 5 110 6.11929 110 7.5Z" fill="black"/>
<path d="M130 75C134.142 75 137.5 71.6421 137.5 67.5C137.5 63.3579 134.142 60 130 60C125.858 60 122.5 63.3579 122.5 67.5C122.5 71.6421 125.858 75 130 75ZM130 65C131.381 65 132.5 66.1193 132.5 67.5C132.5 68.8807 131.381 70 130 70C128.619 70 127.5 68.8807 127.5 67.5C127.5 66.1193 128.619 65 130 65Z" fill="black"/>
<path d="M44.135 76.6875C44.1849 76.7221 44.2366 76.7538 44.29 76.7825C60.4726 87.1057 81.899 83.0064 93.1282 67.4389C104.357 51.8713 101.486 30.2459 86.5844 18.1474C71.6824 6.04895 49.9286 7.68214 37 21.87C36.8739 21.9819 36.76 22.1067 36.66 22.2425C29.6249 30.1353 26.4012 40.7144 27.8393 51.1892C29.2775 61.664 35.233 70.9828 44.135 76.6875V76.6875ZM33.135 39.9375C34.4404 41.7894 36.2407 43.2362 38.33 44.1125C42.405 45.8025 47.3925 45.285 47.1725 47.99C46.9108 49.8581 46.3829 51.6791 45.6051 53.3975C43.3201 59.24 43.4476 61.0125 44.1376 64.9825C44.6607 66.8277 44.696 68.7771 44.24 70.64C35.0479 63.3125 30.7581 51.438 33.145 39.9275L33.135 39.9375ZM60.8851 77.365C65.5836 74.9329 70.9402 74.0774 76.1626 74.925C71.3598 77.019 66.103 77.8553 60.8876 77.355L60.8851 77.365ZM82.6026 71.115C76.7258 69.423 70.5193 69.227 64.5476 70.545C60.7269 71.5519 57.1857 73.4157 54.1926 75.995C52.2869 75.3805 50.445 74.5835 48.6925 73.615C49.7003 70.5457 49.8353 67.2566 49.0825 64.115C48.5325 60.9275 48.365 60.0925 50.28 55.205C51.2441 53.0412 51.8811 50.7461 52.1701 48.395C52.4511 45.4841 50.7808 42.736 48.0675 41.645C42.8825 39.375 37.5675 41.3275 35.4575 33.0875C36.5984 30.6259 38.0548 28.3232 39.79 26.2375C44.7542 26.212 49.6982 25.6028 54.5201 24.4225C59.9347 23.3435 64.6325 20.007 67.4351 15.25C69.8102 15.5342 72.1442 16.0938 74.3901 16.9175C72.2316 18.6875 69.8262 20.1328 67.2501 21.2075C63.4252 22.7623 60.5545 26.0257 59.5001 30.0175C58.4376 35.9625 63.6001 39.9275 68.8426 41.095C81.7851 43.9675 72.0926 54.24 71.9476 61.1225C71.8726 63.1321 72.6503 65.0798 74.0889 66.485C75.5274 67.8902 77.4928 68.6221 79.5001 68.5C82.9255 68.2463 86.1907 66.9479 88.8551 64.78C87.0821 67.1761 84.9777 69.3083 82.6051 71.1125L82.6026 71.115ZM45.5425 20.9025C50.1778 17.5549 55.6487 15.5545 61.3501 15.1225C57.5326 19.2 51.5225 20.28 45.5425 20.9025ZM92.9401 57.31C86.5501 59.2325 84.2701 62.9225 80.1026 63.4575C79.2018 63.6321 78.2692 63.4178 77.5351 62.8675C75.0976 60.6775 80.5676 54.2025 80.5676 47.3675C80.5501 41.7775 76.6676 37.7125 69.9201 36.215C69.6701 36.16 63.7176 34.7875 64.4201 30.9025C65.2006 28.5409 66.9989 26.6537 69.3201 25.76C73.0452 24.2432 76.4329 22.0034 79.2876 19.17C92.6219 26.7764 98.4184 42.9695 92.9401 57.31Z" fill="black"/>
<path d="M85 87.5H42.5C41.1193 87.5 40 88.6193 40 90C40 91.3807 41.1193 92.5 42.5 92.5H85C86.3807 92.5 87.5 91.3807 87.5 90C87.5 88.6193 86.3807 87.5 85 87.5Z" fill="black"/>
</svg>
