<svg width="150" height="150" viewBox="0 0 150 150" fill="none" xmlns="http://www.w3.org/2000/svg">
<path d="M75.0001 120.989C100.401 120.989 120.993 100.397 120.993 74.9964C120.993 49.5954 100.401 29.0038 75.0001 29.0038C49.5991 29.0038 29.0076 49.5954 29.0076 74.9964C29.0076 100.397 49.5991 120.989 75.0001 120.989Z" fill="#FEDB41"/>
<path d="M111.618 77.0472C111.075 77.0466 110.554 76.8307 110.171 76.4469C109.787 76.0631 109.571 75.5427 109.57 74.9999C109.561 65.8342 105.916 57.0465 99.4346 50.5653C92.9534 44.0841 84.1658 40.4389 75 40.4296C74.4561 40.4296 73.9345 40.2136 73.5499 39.829C73.1653 39.4444 72.9492 38.9227 72.9492 38.3788C72.9492 37.8349 73.1653 37.3133 73.5499 36.9287C73.9345 36.5441 74.4561 36.3281 75 36.3281C85.2531 36.3389 95.0831 40.4168 102.333 47.6668C109.583 54.9168 113.661 64.7469 113.672 74.9999C113.672 75.2693 113.618 75.536 113.515 75.7847C113.411 76.0334 113.26 76.2592 113.069 76.4494C112.878 76.6395 112.652 76.7902 112.403 76.8928C112.154 76.9953 111.887 77.0478 111.618 77.0472Z" fill="#FEA832"/>
<path d="M74.9998 19.6289C78.341 19.6328 81.6749 19.9391 84.9608 20.5441C85.0053 19.9054 85.0346 19.2551 85.0346 18.6011C85.0334 9.45935 74.9998 2.04724 74.9998 2.04724C74.9998 2.04724 64.9651 9.45935 64.9651 18.6011C64.9651 19.2597 64.9956 19.9054 65.0401 20.5441C68.3256 19.9392 71.6591 19.6328 74.9998 19.6289Z" fill="#FEA832"/>
<path d="M75.0002 130.364C78.3412 130.36 81.6751 130.054 84.9611 129.45C85.0056 130.088 85.0349 130.733 85.0349 131.392C85.0349 140.532 75.0013 147.946 75.0013 147.946C75.0013 147.946 64.9666 140.535 64.9666 131.392C64.9666 130.733 64.997 130.088 65.0416 129.45C68.3268 130.054 71.6599 130.36 75.0002 130.364Z" fill="#FEA832"/>
<path d="M114.151 35.8453C116.51 38.2108 118.65 40.7846 120.546 43.5351C121.03 43.1156 121.507 42.6796 121.972 42.2144C128.438 35.7492 126.583 23.414 126.583 23.414C126.583 23.414 114.247 21.5625 107.782 28.0242C107.313 28.4929 106.881 28.9617 106.461 29.4503C109.212 31.3462 111.786 33.4865 114.151 35.8453Z" fill="#FEA832"/>
<path d="M35.8488 114.148C38.2138 116.507 40.7876 118.647 43.5386 120.543C43.1191 121.027 42.6832 121.503 42.2179 121.969C35.7527 128.434 23.4175 126.579 23.4175 126.579C23.4175 126.579 21.5624 114.244 28.0277 107.778C28.4964 107.31 28.9652 106.877 29.4539 106.458C31.3494 109.209 33.4897 111.782 35.8488 114.148Z" fill="#FEA832"/>
<path d="M130.368 75C130.364 78.341 130.058 81.6749 129.454 84.9609C130.091 85.0054 130.737 85.0359 131.395 85.0359C140.536 85.0359 147.949 75.0011 147.949 75.0011C147.949 75.0011 140.537 64.9675 131.395 64.9675C130.737 64.9675 130.091 64.9968 129.454 65.0414C130.057 68.3266 130.363 71.6597 130.368 75Z" fill="#FEA832"/>
<path d="M19.6324 75C19.6365 78.341 19.9424 81.6749 20.5465 84.9609C19.909 85.0054 19.2574 85.0359 18.6047 85.0359C9.46289 85.0312 2.05078 75 2.05078 75C2.05078 75 9.46289 64.9664 18.6047 64.9664C19.2633 64.9664 19.909 64.9957 20.5465 65.0402C19.9426 68.3258 19.6366 71.6593 19.6324 75Z" fill="#FEA832"/>
<path d="M114.151 114.148C111.786 116.506 109.212 118.647 106.461 120.543C106.881 121.027 107.317 121.503 107.782 121.969C114.247 128.434 126.583 126.579 126.583 126.579C126.583 126.579 128.438 114.244 121.972 107.778C121.504 107.31 121.035 106.877 120.546 106.458C118.651 109.209 116.51 111.782 114.151 114.148Z" fill="#FEA832"/>
<path d="M35.8488 35.8453C33.49 38.2108 31.3497 40.7846 29.4539 43.5351C28.9699 43.1156 28.4929 42.6796 28.0277 42.2144C21.5624 35.7492 23.4175 23.414 23.4175 23.414C23.4175 23.414 35.7527 21.5625 42.2179 28.0242C42.6867 28.4929 43.1191 28.9617 43.5386 29.4503C40.7878 31.3459 38.2141 33.4862 35.8488 35.8453Z" fill="#FEA832"/>
<path d="M30.1898 85.6078C29.6665 85.7565 29.2237 86.1069 28.9587 86.582C28.6937 87.0571 28.6282 87.618 28.7766 88.1414C29.4207 90.4055 30.2303 92.6193 31.1988 94.7648C31.3617 95.1253 31.6254 95.4311 31.9581 95.6453C32.2907 95.8594 32.6782 95.9728 33.0738 95.9718C33.4164 95.9711 33.7532 95.8847 34.0538 95.7205C34.3544 95.5563 34.6092 95.3195 34.7948 95.0317C34.9805 94.7439 35.0912 94.4141 35.1169 94.0726C35.1426 93.731 35.0824 93.3885 34.9418 93.0761C34.056 91.1144 33.3158 89.0902 32.727 87.0199C32.6532 86.7605 32.5291 86.5182 32.3616 86.3068C32.1942 86.0954 31.9867 85.9191 31.7511 85.7879C31.5155 85.6568 31.2563 85.5734 30.9884 85.5425C30.7205 85.5115 30.4492 85.5337 30.1898 85.6078Z" fill="black"/>
<path d="M40.5469 105.527C40.3533 105.715 40.1985 105.938 40.0914 106.185C39.9844 106.432 39.927 106.698 39.9228 106.967C39.9186 107.237 39.9675 107.504 40.0667 107.755C40.1659 108.005 40.3136 108.233 40.5012 108.427C48.2608 116.432 58.5627 121.489 69.6418 122.732C80.7209 123.976 91.8876 121.327 101.228 115.241C110.569 109.155 117.503 100.01 120.842 89.3735C124.181 78.7365 123.716 67.2696 119.528 56.9373C115.341 46.6051 107.69 38.0508 97.8878 32.74C88.0854 27.4291 76.7412 25.6924 65.7989 27.8274C54.8566 29.9624 44.9973 35.8362 37.9103 44.4423C30.8233 53.0485 26.9497 63.8514 26.9531 75C26.9531 75.5439 27.1692 76.0655 27.5538 76.4501C27.9384 76.8347 28.46 77.0508 29.0039 77.0508C29.5478 77.0508 30.0694 76.8347 30.454 76.4501C30.8386 76.0655 31.0547 75.5439 31.0547 75C31.0529 64.803 34.5973 54.9227 41.0806 47.0521C47.5639 39.1815 56.5824 33.8104 66.591 31.8592C76.5996 29.908 86.9753 31.4981 95.9402 36.357C104.905 41.2159 111.901 49.0413 115.73 58.4922C119.559 67.9432 119.982 78.4314 116.926 88.1599C113.871 97.8884 107.527 106.252 98.9828 111.817C90.4382 117.382 80.2242 119.802 70.091 118.663C59.9578 117.524 50.5361 112.896 43.4402 105.573C43.0622 105.184 42.5453 104.961 42.003 104.952C41.4607 104.944 40.9371 105.151 40.5469 105.527Z" fill="black"/>
<path d="M109.57 75C109.57 75.5439 109.786 76.0655 110.171 76.4501C110.556 76.8347 111.077 77.0508 111.621 77.0508C112.165 77.0508 112.687 76.8347 113.071 76.4501C113.456 76.0655 113.672 75.5439 113.672 75C113.661 64.7469 109.583 54.9169 102.333 47.6668C95.0831 40.4168 85.2531 36.339 75 36.3281C74.4561 36.3281 73.9345 36.5442 73.5499 36.9288C73.1653 37.3134 72.9492 37.835 72.9492 38.3789C72.9492 38.9228 73.1653 39.4444 73.5499 39.829C73.9345 40.2136 74.4561 40.4297 75 40.4297C84.1658 40.439 92.9534 44.0842 99.4346 50.5654C105.916 57.0465 109.561 65.8342 109.57 75Z" fill="black"/>
<path d="M63.7841 22.1637C64.0119 22.34 64.2742 22.4665 64.554 22.5349C64.8338 22.6034 65.1248 22.6122 65.4083 22.5609C71.7495 21.3926 78.2507 21.3926 84.5919 22.5609C84.8756 22.6123 85.167 22.6034 85.4471 22.5347C85.7272 22.466 85.9896 22.3391 86.2174 22.1622C86.4451 21.9853 86.633 21.7624 86.7689 21.5081C86.9048 21.2537 86.9856 20.9736 87.006 20.6859C87.0528 20.0015 87.0845 19.309 87.0845 18.6012C87.0845 8.53944 76.6618 0.725375 76.2188 0.398422C75.8661 0.137514 75.4389 -0.0032959 75.0001 -0.0032959C74.5613 -0.0032959 74.1341 0.137514 73.7813 0.398422C73.3372 0.725375 62.9146 8.53944 62.9146 18.6012C62.9146 19.3101 62.9462 20.0074 62.9954 20.6883C63.0158 20.9758 63.0966 21.2558 63.2325 21.51C63.3684 21.7643 63.5563 21.987 63.7841 22.1637ZM75.0001 4.70389C77.4411 6.84491 82.7157 12.1418 82.9688 18.1453C77.68 17.3906 72.3108 17.3906 67.022 18.1453C67.2845 12.1418 72.5591 6.84373 75.0001 4.70389Z" fill="black"/>
<path d="M86.2173 127.83C85.9897 127.653 85.7273 127.526 85.4472 127.458C85.167 127.389 84.8756 127.38 84.5919 127.432C78.2508 128.602 71.7494 128.602 65.4083 127.432C65.1246 127.38 64.8332 127.389 64.5531 127.458C64.273 127.526 64.0106 127.653 63.7829 127.83C63.5552 128.007 63.3673 128.23 63.2317 128.485C63.096 128.739 63.0155 129.019 62.9954 129.307C62.9462 129.993 62.9146 130.687 62.9146 131.394C62.9146 141.456 73.3372 149.27 73.7813 149.597C74.134 149.858 74.5613 149.999 75.0001 149.999C75.4389 149.999 75.8661 149.858 76.2188 149.597C76.6618 149.27 87.0845 141.456 87.0845 131.394C87.0845 130.691 87.0528 129.994 87.006 129.309C86.9863 129.021 86.9058 128.74 86.7699 128.485C86.634 128.231 86.4456 128.007 86.2173 127.83ZM75.0001 145.289C72.5579 143.148 67.2845 137.851 67.0313 131.848C72.3202 132.602 77.6894 132.602 82.9782 131.848C82.7157 137.851 77.4399 143.149 75.0001 145.289Z" fill="black"/>
<path d="M44.7048 118.856C39.3907 115.204 34.7928 110.607 31.1403 105.293C30.9766 105.056 30.7646 104.856 30.5182 104.706C30.2719 104.556 29.9967 104.46 29.7107 104.423C29.425 104.389 29.1352 104.414 28.8599 104.498C28.5845 104.581 28.3295 104.721 28.111 104.909C27.5907 105.359 27.0786 105.829 26.5782 106.328C19.4626 113.443 21.3048 126.34 21.3892 126.884C21.454 127.317 21.6564 127.719 21.9665 128.029C22.2766 128.34 22.678 128.542 23.1118 128.607C24.5526 128.799 26.0049 128.891 27.4583 128.882C31.9888 128.882 39.047 128.04 43.6665 123.421C44.1669 122.921 44.6357 122.407 45.0868 121.888C45.2759 121.67 45.417 121.415 45.5008 121.139C45.5846 120.863 45.6093 120.573 45.5732 120.287C45.5372 120.001 45.4412 119.725 45.2915 119.479C45.1419 119.232 44.942 119.02 44.7048 118.856ZM25.295 124.702C25.0829 121.461 25.1005 113.985 29.1622 109.557C30.7649 111.69 32.5145 113.709 34.3982 115.598C36.2865 117.482 38.3043 119.232 40.4368 120.834C36.0107 124.897 28.5353 124.915 25.295 124.702Z" fill="black"/>
<path d="M149.598 73.7777C149.271 73.3348 141.457 62.9121 131.395 62.9121C130.692 62.9121 129.995 62.9437 129.31 62.9906C129.023 63.0109 128.743 63.0915 128.488 63.2272C128.234 63.363 128.011 63.5508 127.834 63.7784C127.657 64.0061 127.53 64.2685 127.462 64.5485C127.393 64.8285 127.384 65.1198 127.435 65.4035C128.61 71.7449 128.61 78.2481 127.435 84.5894C127.384 84.8731 127.393 85.1645 127.462 85.4445C127.53 85.7245 127.657 85.9869 127.834 86.2145C128.011 86.4422 128.234 86.63 128.488 86.7657C128.743 86.9015 129.023 86.9821 129.31 87.0023C129.995 87.0492 130.689 87.082 131.395 87.082C141.457 87.082 149.271 76.6582 149.598 76.2152C149.859 75.8624 150 75.4353 150 74.9965C150 74.5577 149.859 74.1305 149.598 73.7777ZM131.851 82.9687C132.607 77.68 132.607 72.3106 131.851 67.0219C137.855 67.2797 143.153 72.5555 145.293 74.9906C143.152 77.4375 137.855 82.7121 131.851 82.9687Z" fill="black"/>
<path d="M127.378 21.9672C126.833 21.8852 113.938 20.0406 106.823 27.1553C106.326 27.6525 105.855 28.1679 105.405 28.685C105.216 28.9027 105.074 29.1577 104.991 29.4336C104.907 29.7094 104.882 29.9998 104.918 30.2859C104.954 30.572 105.049 30.8473 105.199 31.0939C105.348 31.3404 105.548 31.5528 105.785 31.717C111.1 35.3702 115.698 39.9686 119.351 45.2835C119.516 45.5205 119.728 45.7202 119.975 45.8696C120.221 46.019 120.496 46.1147 120.783 46.1506C121.069 46.1865 121.359 46.1617 121.635 46.0778C121.911 45.994 122.166 45.8529 122.383 45.6638C122.901 45.2131 123.414 44.7457 123.914 44.246C131.029 37.1313 129.183 24.2352 129.101 23.6908C129.036 23.2568 128.834 22.8552 128.524 22.5449C128.213 22.2347 127.812 22.0322 127.378 21.9672ZM121.328 41.0152C118.123 36.7407 114.326 32.944 110.052 29.739C114.479 25.6762 121.956 25.6605 125.191 25.8693C125.407 29.1134 125.391 36.5886 121.328 41.0152Z" fill="black"/>
<path d="M22.1659 86.2137C22.343 85.9861 22.4701 85.7236 22.5387 85.4435C22.6074 85.1634 22.6161 84.872 22.5643 84.5883C21.3893 78.2481 21.3893 71.746 22.5643 65.4059C22.6159 65.122 22.6071 64.8305 22.5385 64.5503C22.4699 64.2701 22.343 64.0075 22.1661 63.7796C21.9891 63.5517 21.7662 63.3637 21.5117 63.2277C21.2573 63.0918 20.9771 63.011 20.6893 62.9906C20.0049 62.9426 19.3112 62.9121 18.6045 62.9121C8.54281 62.9121 0.728743 73.3348 0.400619 73.7777C0.140238 74.1307 -0.000244141 74.5578 -0.000244141 74.9965C-0.000244141 75.4351 0.140238 75.8622 0.400619 76.2152C0.728743 76.6582 8.54281 87.082 18.6045 87.082C19.3076 87.082 20.0108 87.0504 20.6893 87.0023C20.9771 86.9823 21.2574 86.9017 21.5119 86.7658C21.7663 86.6299 21.9892 86.4417 22.1659 86.2137ZM18.1487 82.9687C12.1451 82.7109 6.8471 77.4351 4.70726 75C6.84827 72.559 12.1451 67.2844 18.1487 67.0312C17.3924 72.32 17.3924 77.6894 18.1487 82.9781V82.9687Z" fill="black"/>
<path d="M121.89 104.909C121.671 104.721 121.416 104.581 121.14 104.497C120.864 104.414 120.574 104.389 120.288 104.423C120.002 104.46 119.727 104.556 119.481 104.706C119.235 104.856 119.023 105.056 118.86 105.293C115.208 110.607 110.61 115.205 105.295 118.856C105.058 119.02 104.858 119.232 104.709 119.479C104.559 119.725 104.463 120 104.427 120.286C104.391 120.572 104.415 120.862 104.499 121.138C104.582 121.414 104.723 121.669 104.912 121.887C105.363 122.406 105.832 122.92 106.331 123.418C110.953 128.04 118.011 128.882 122.542 128.88C123.995 128.89 125.447 128.798 126.887 128.607C127.321 128.542 127.723 128.34 128.033 128.029C128.343 127.719 128.546 127.318 128.611 126.884C128.693 126.34 130.537 113.443 123.422 106.328C122.923 105.829 122.409 105.36 121.89 104.909ZM124.703 124.702C121.462 124.911 113.986 124.896 109.56 120.834C113.834 117.63 117.631 113.833 120.835 109.559C124.9 113.987 124.922 121.461 124.705 124.702H124.703Z" fill="black"/>
<path d="M28.111 45.0843C28.4839 45.4072 28.9607 45.5849 29.454 45.5847C29.5397 45.5849 29.6254 45.5798 29.7106 45.5695C29.9965 45.5332 30.2716 45.4371 30.5179 45.2875C30.7642 45.1379 30.9763 44.9381 31.1403 44.7011C34.7924 39.3867 39.3903 34.7888 44.7047 31.1367C44.9419 30.9727 45.1418 30.7605 45.2915 30.5141C45.4411 30.2676 45.5371 29.9923 45.5731 29.7062C45.6092 29.4201 45.5845 29.1297 45.5007 28.8538C45.4169 28.5779 45.2758 28.3227 45.0868 28.105C44.6368 27.5871 44.168 27.0738 43.6676 26.5746C36.5532 19.4589 23.6567 21.3011 23.1118 21.3855C22.678 21.4507 22.2765 21.6533 21.9664 21.9636C21.6563 22.2739 21.454 22.6755 21.3891 23.1093C21.3071 23.6543 19.4625 36.5507 26.5782 43.6664C27.0786 44.1656 27.5907 44.6343 28.111 45.0843ZM25.2985 25.2914C28.5364 25.0757 36.0129 25.0957 40.4415 29.1586C38.3087 30.761 36.2908 32.511 34.4028 34.3957C32.518 36.2829 30.7669 38.2991 29.1622 40.4297C25.1004 36.007 25.0782 28.5316 25.295 25.2914H25.2985Z" fill="black"/>
</svg>
