<svg width="26" height="22" viewBox="0 0 26 22" fill="none" xmlns="http://www.w3.org/2000/svg">
<path d="M10.4387 21C9.60051 21 9.75095 20.6897 9.45006 19.9241L7 12.1448L22.2162 3L24 3.45517L22.5171 7.34483L10.4387 21Z" fill="#7D7D7D"/>
<path d="M10 21C10.5714 21 10.819 20.707 11.1429 20.3721C11.6381 19.8488 18 13.0465 18 13.0465L14.0952 12L10.4762 14.5116L10 20.7907V21Z" fill="#373737"/>
<path d="M10.1742 14.5243L19.8158 21.7027C20.9114 22.3059 21.7083 22.0043 21.9872 20.6772L25.9115 2.0173C26.3099 0.388575 25.294 -0.335301 24.2382 0.147284L1.2099 9.11531C-0.363831 9.75875 -0.343911 10.6435 0.931012 11.0255L6.84745 12.8955L20.5329 4.18893C21.1704 3.78677 21.768 4.00796 21.2899 4.45033L10.1742 14.5243Z" fill="#181818"/>
</svg>
